<svg width="26" height="26" viewBox="0 0 26 26" fill="none" xmlns="http://www.w3.org/2000/svg">
<g style="mix-blend-mode:hard-light" clip-path="url(#clip0_3_220)">
<path d="M10.5625 7.28327C13.2665 4.56465 20.0281 9.32102 10.5625 15.4375C1.09688 9.32102 7.85851 4.56627 10.5625 7.28327Z" fill="#D7598B"/>
<path d="M21.125 10.5625C21.1285 12.8096 20.4121 14.9988 19.0808 16.809C19.1458 16.8578 19.2075 16.9098 19.2676 16.9683L25.5239 23.2245C25.8288 23.5292 26.0002 23.9426 26.0003 24.3736C26.0005 24.8047 25.8294 25.2182 25.5247 25.5231C25.22 25.828 24.8066 25.9994 24.3756 25.9995C23.9445 25.9997 23.5311 25.8286 23.2261 25.5239L16.9699 19.2676C16.9111 19.2095 16.8568 19.1471 16.8074 19.0808H16.8106C14.8961 20.4854 12.5641 21.2039 10.191 21.1204C7.81791 21.0369 5.54219 20.1562 3.73112 18.6204C1.92006 17.0847 0.679319 14.9834 0.209142 12.6559C-0.261034 10.3284 0.0667875 7.91028 1.1397 5.79194C2.21261 3.67359 3.96802 1.97857 6.1226 0.980433C8.27719 -0.0177039 10.7053 -0.26072 13.0149 0.290607C15.3246 0.841933 17.3811 2.15544 18.8526 4.01912C20.324 5.88281 21.1246 8.18795 21.125 10.5625ZM10.5625 19.5C11.7362 19.5 12.8984 19.2688 13.9827 18.8197C15.0671 18.3705 16.0524 17.7122 16.8823 16.8823C17.7122 16.0524 18.3705 15.0671 18.8197 13.9827C19.2688 12.8984 19.5 11.7362 19.5 10.5625C19.5 9.38882 19.2688 8.22662 18.8197 7.14228C18.3705 6.05793 17.7122 5.07267 16.8823 4.24274C16.0524 3.41282 15.0671 2.75449 13.9827 2.30534C12.8984 1.85619 11.7362 1.62501 10.5625 1.62501C8.19214 1.62501 5.91885 2.56664 4.24275 4.24274C2.56664 5.91885 1.62501 8.19214 1.62501 10.5625C1.62501 12.9329 2.56664 15.2062 4.24275 16.8823C5.91885 18.5584 8.19214 19.5 10.5625 19.5Z" fill="#DC3790"/>
</g>
<defs>
<clipPath id="clip0_3_220">
<rect width="26" height="26" fill="white"/>
</clipPath>
</defs>
</svg>
