<svg width="41" height="41" viewBox="0 0 41 41" fill="none" xmlns="http://www.w3.org/2000/svg">
<path d="M37.2278 20.6015C37.2278 29.8961 29.693 37.4309 20.3984 37.4309C11.1038 37.4309 3.56897 29.8961 3.56897 20.6015C3.56897 11.3068 11.1038 3.77203 20.3984 3.77203" stroke="white" stroke-width="3.33333" stroke-linecap="round" stroke-linejoin="round"/>
<path d="M32.179 8.37668L32.4677 9.26507H33.4018L32.6461 9.81405L32.9348 10.7025L32.179 10.1534L31.4233 10.7025L31.712 9.81405L30.9563 9.26507H31.8904L32.179 8.37668Z" stroke="white" stroke-width="3.33333"/>
<path d="M25.4473 16.3941C25.4473 13.6057 23.1868 11.3453 20.3984 11.3453C17.61 11.3453 15.3496 13.6057 15.3496 16.3941V26.4918C15.3496 29.2801 17.61 31.5406 20.3984 31.5406C23.1868 31.5406 25.4473 29.2801 25.4473 26.4918V16.3941Z" fill="#DC3790" stroke="white" stroke-width="3.33333" stroke-linecap="round" stroke-linejoin="round"/>
<path d="M15.3496 21.4429C13.6666 21.4429 11.1422 23.2248 11.1422 26.4918C11.1422 29.7587 11.1422 33.0613 11.1422 34.7249" stroke="white" stroke-width="3.33333" stroke-linecap="round" stroke-linejoin="round"/>
<path d="M25.4473 21.4429C27.1302 21.4429 29.6546 23.2248 29.6546 26.4918C29.6546 29.7587 29.6546 32.8221 29.6546 34.4857" stroke="white" stroke-width="3.33333" stroke-linecap="round" stroke-linejoin="round"/>
</svg>
