<svg width="38" height="38" viewBox="0 0 38 38" fill="none" xmlns="http://www.w3.org/2000/svg">
<path d="M14.7995 4.91426C14.8445 4.10352 15.5151 3.46918 16.3272 3.46918H21.0826C21.8947 3.46918 22.5653 4.10352 22.6103 4.91426L23.2053 15.6239C23.254 16.5009 22.556 17.2387 21.6776 17.2387H15.7321C14.8537 17.2387 14.1557 16.5009 14.2044 15.6239L14.7995 4.91426Z" stroke="white" stroke-width="3.33333"/>
<path d="M8.75952 21.8286C8.75952 19.2937 10.8146 17.2387 13.3497 17.2387H24.0601C26.5952 17.2387 28.6503 19.2937 28.6503 21.8286V31.7732C28.6503 33.0407 27.6228 34.0681 26.3552 34.0681H11.0546C9.78703 34.0681 8.75952 33.0407 8.75952 31.7732V21.8286Z" fill="#DC3790" stroke="white" stroke-width="3.33333"/>
<path d="M18.7049 27.9483C19.9724 27.9483 21 26.9209 21 25.6534C21 24.386 19.9724 23.3585 18.7049 23.3585C17.4373 23.3585 16.4098 24.386 16.4098 25.6534C16.4098 26.9209 17.4373 27.9483 18.7049 27.9483Z" fill="white"/>
</svg>
