<svg width="41" height="41" viewBox="0 0 41 41" fill="none" xmlns="http://www.w3.org/2000/svg">
<g clip-path="url(#clip0_3_16)">
<path d="M4.55372 36.0633L4.33673 35.7825C4.18993 35.6038 3.97613 35.3389 3.70489 35.0038C3.43364 34.6911 3.10177 34.3082 2.72203 33.871C2.3359 33.4402 1.88277 32.952 1.38176 32.435C0.880761 31.9148 0.325508 31.3628 -0.264847 30.7788C-0.855202 30.1948 -1.48385 29.5853 -2.14441 28.9599C-3.45914 27.709 -4.88876 26.391 -6.33752 25.0859C-7.78628 23.7807 -9.26696 22.4979 -10.6583 21.2885C-11.3571 20.6853 -12.0305 20.1014 -12.6719 19.5461C-12.991 19.2749 -13.2973 19.01 -13.5973 18.7515C-13.8443 18.5409 -14.0976 18.3376 -14.3568 18.142C-14.8099 17.8038 -15.1258 17.6251 -15.3939 17.5102C-15.6587 17.3953 -15.9172 17.3219 -16.1246 17.2804C-16.2833 17.2458 -16.4444 17.2234 -16.6065 17.2134C-16.7182 17.2038 -16.7756 17.2038 -16.7756 17.2038C-18.9839 17.1975 -20.7709 15.4009 -20.7645 13.1926C-20.7581 10.9844 -18.9615 9.19737 -16.7533 9.20375C-16.6129 9.20375 -16.4757 9.21013 -16.3416 9.22609L-15.9683 9.26757C-15.9683 9.26757 -15.78 9.28672 -15.4322 9.34735C-15.0843 9.40798 -14.5801 9.51009 -13.9579 9.70475C-13.3324 9.89941 -12.5985 10.1834 -11.7975 10.627C-10.9965 11.0642 -10.1892 11.6609 -9.49991 12.2672C-9.15527 12.5704 -8.82658 12.8799 -8.52343 13.1767C-8.23304 13.4607 -7.93627 13.7543 -7.62673 14.0542C-7.01723 14.651 -6.37581 15.2764 -5.71206 15.9274C-5.04832 16.5816 -4.36223 17.2581 -3.66337 17.9442C-2.96771 18.6367 -2.25929 19.3419 -1.55405 20.0471C-0.140393 21.4608 1.26369 22.8968 2.56247 24.2658C3.21346 24.9487 3.83572 25.6188 4.4197 26.2602C5.00367 26.9048 5.55254 27.5143 6.06311 28.0759C7.08746 29.2088 7.94268 30.1534 8.53941 30.8171C8.833 31.133 9.06276 31.3819 9.22231 31.5542L9.46803 31.8095C10.7126 33.1051 10.6743 35.1634 9.37867 36.4111C8.08308 37.6556 6.02482 37.6173 4.7771 36.3218C4.69732 36.2388 4.62073 36.1526 4.55372 36.0633ZM21.1794 21.6203C21.1794 21.6203 19.6381 20.8736 17.3213 19.7567C16.7437 19.4759 16.1151 19.176 15.4545 18.8536C15.2886 18.7739 15.1195 18.6909 14.9503 18.6111C14.7908 18.5377 14.6312 18.4611 14.4685 18.3846C14.1175 18.2186 13.7569 18.0495 13.3931 17.8772C11.9411 17.1943 10.4285 16.4858 8.93511 15.8572C7.44167 15.2286 5.96738 14.6829 4.59202 14.284C3.94083 14.0935 3.28304 13.9264 2.61991 13.783C2.06069 13.6654 1.49633 13.5738 0.928628 13.5085C-0.10529 13.3937 -0.925406 13.4001 -1.47747 13.4447C-1.75509 13.4639 -1.9689 13.4894 -2.1125 13.5085C-2.2561 13.5277 -2.33268 13.5373 -2.33268 13.5373L-2.38693 13.5436C-4.57284 13.8372 -6.58005 12.3023 -6.87363 10.1164C-7.16721 7.9305 -5.63229 5.92329 -3.44638 5.62971C-3.3666 5.62014 -3.27406 5.61056 -3.19109 5.60418C-3.19109 5.60418 -3.05387 5.59461 -2.79858 5.57546C-2.5433 5.5595 -2.16675 5.54036 -1.69765 5.54036C-0.753087 5.53398 0.574413 5.61375 2.08062 5.88181C2.83691 6.01583 3.62192 6.19134 4.4548 6.42429C5.25577 6.64767 6.09184 6.91572 6.92471 7.21569C8.60004 7.81881 10.2977 8.5751 11.9156 9.37926C13.5335 10.1834 15.0748 11.0259 16.4853 11.7981C16.8363 11.9896 17.1809 12.1779 17.516 12.3629C17.6979 12.4619 17.8766 12.5608 18.0553 12.6565C18.2212 12.7491 18.384 12.8416 18.5435 12.931C19.1849 13.2916 19.7913 13.633 20.3529 13.9457C22.593 15.203 24.0865 16.0423 24.0865 16.0423C25.5991 16.8911 26.1384 18.809 25.2895 20.3247C24.4726 21.7831 22.6601 22.332 21.1794 21.6203Z" fill="#70534A"/>
<path d="M21.0454 14.801L24.6417 16.7124C27.3542 18.1548 28.9019 19.4057 28.0147 21.0811C27.1308 22.7436 25.2576 22.1916 22.5069 20.73C21.4602 20.1748 20.8379 19.8429 18.9105 18.8186C18.9105 18.8186 18.802 17.8836 19.5041 16.5593C20.238 15.1775 21.0454 14.801 21.0454 14.801ZM7.01726 29.5375L9.66588 32.6329C11.6635 34.9656 12.6464 36.6983 11.204 37.9333C9.77438 39.1555 8.22988 37.9588 6.20672 35.591C5.43767 34.6911 4.97815 34.155 3.55811 32.4956C3.55811 32.4956 3.79744 31.5862 4.93985 30.6097C6.13014 29.5917 7.01726 29.5375 7.01726 29.5375Z" fill="#D7598B"/>
<path d="M34.6458 14.7244C34.6586 14.5169 34.6043 14.3127 34.5405 14.1181C34.3745 13.6107 34.1288 13.116 33.7331 12.7586C33.3374 12.4012 32.7758 12.197 32.2588 12.3342C31.5026 12.5321 31.0973 13.3362 30.7814 14.051C30.4527 14.7978 30.108 15.5541 29.5847 16.1795C29.0614 16.805 29.0709 17.5644 28.2572 17.6283C28.9337 17.9729 29.0709 17.708 29.7474 18.0527C29.99 18.1771 30.2357 18.3016 30.5005 18.375C31.4355 18.6367 32.061 18.4197 32.7471 17.7272C33.43 17.0379 34.0395 16.2561 34.4416 15.3722C34.5341 15.1679 34.6298 14.9509 34.6458 14.7244Z" fill="#2F2F2F"/>
<path d="M27.2808 17.2868C27.5361 17.3442 28.1679 17.3634 28.3849 17.2198C29.5656 16.4316 30.5931 15.3562 31.1516 14.051C31.1452 14.6956 30.8963 15.337 30.4655 15.8189C31.2759 15.1151 31.8922 14.2153 32.2557 13.2054C32.6035 14.5169 32.1185 15.9051 31.493 17.1081C32.2844 16.4156 32.9067 15.5317 33.2896 14.552C33.3471 15.1424 32.8843 17.073 32.6067 17.3698C33.0311 16.923 34.3746 15.6115 34.2789 15.42C34.4384 16.0965 33.1811 17.9888 31.9111 18.4452C31.6462 18.5409 31.3686 18.6079 31.0909 18.5984C30.3729 18.576 29.6805 18.4548 29.0327 18.1452C28.5604 17.9155 27.5488 17.5868 27.2808 17.2868Z" fill="#D7598B"/>
<path d="M40.8462 -0.168526C41.6408 0.28142 42.2088 0.782424 42.113 0.951552L34.9011 13.7383C34.8054 13.9074 34.0842 13.6809 33.2896 13.2341C32.495 12.7874 31.9302 12.2864 32.026 12.1172L39.2379 -0.669529C39.3304 -0.841849 40.0516 -0.618472 40.8462 -0.168526Z" fill="#F48120"/>
<path d="M22.7781 16.4827C22.7781 16.4827 22.8643 16.505 23.0111 16.5561C23.0845 16.5784 23.1707 16.6135 23.2728 16.6518C23.3717 16.6869 23.4866 16.7411 23.5983 16.7826C23.8376 16.8816 24.1216 17.0188 24.4056 17.1783C24.6928 17.3411 24.9896 17.5262 25.2768 17.7304C25.5672 17.9282 25.8416 18.1452 26.0969 18.3527C26.349 18.5633 26.5756 18.7707 26.7638 18.9558C27.1404 19.3259 27.3574 19.6068 27.3574 19.6068L27.1468 19.8493C27.1468 19.8493 26.8436 19.6738 26.4128 19.393C25.9852 19.1121 25.414 18.7388 24.846 18.3654C24.5588 18.1803 24.278 17.9953 24.0131 17.8197C23.7482 17.641 23.5089 17.4719 23.2951 17.3187C23.1802 17.2326 23.0909 17.1688 23.0079 17.0985C22.9249 17.0315 22.8547 16.9741 22.7973 16.923C22.6824 16.8241 22.6186 16.7603 22.6186 16.7603L22.7781 16.4827ZM8.13416 32.5212C8.13416 32.5212 8.1916 32.5595 8.29372 32.6297C8.34158 32.6648 8.40221 32.7094 8.46923 32.7573C8.53624 32.8084 8.60964 32.8658 8.68941 32.9264C9.0181 33.1817 9.43294 33.5615 9.80311 33.9795C10.1797 34.3943 10.5211 34.8379 10.7509 35.1857C10.9806 35.5368 11.1147 35.7825 11.1147 35.7825L10.8562 35.9707C10.8562 35.9707 10.6711 35.7697 10.3935 35.4666C10.119 35.1634 9.75524 34.7613 9.38507 34.3688C9.01171 33.9763 8.63836 33.5806 8.35754 33.287C8.28095 33.2041 8.22351 33.1402 8.16607 33.0732C8.11182 33.0094 8.06396 32.952 8.02566 32.9073C7.94908 32.8116 7.90759 32.7573 7.90759 32.7573L8.13416 32.5212Z" fill="white"/>
<path d="M12.9048 33.0317L12.6878 32.7509C12.541 32.5722 12.3272 32.3073 12.056 31.9723C11.7847 31.6596 11.4528 31.2766 11.0731 30.8394C10.687 30.4086 10.2338 29.9204 9.73284 29.4034C9.23183 28.8833 8.67658 28.3312 8.08622 27.7473C7.49587 27.1633 6.86722 26.5538 6.20666 25.9283C4.89193 24.6774 3.46231 23.3595 2.01355 22.0543C0.564791 20.7492 -0.915882 19.4663 -2.3072 18.2569C-3.00606 17.6538 -3.67938 17.0698 -4.32079 16.5146C-4.6399 16.2433 -4.94625 15.9785 -5.24621 15.72C-5.49325 15.5093 -5.74652 15.306 -6.0057 15.1105C-6.45883 14.7722 -6.77475 14.5935 -7.0428 14.4786C-7.30767 14.3638 -7.56615 14.2904 -7.77357 14.2489C-7.93223 14.2142 -8.09333 14.1918 -8.25542 14.1819C-8.36711 14.1723 -8.42455 14.1723 -8.42455 14.1723C-10.6328 14.1659 -12.4198 12.3693 -12.4134 10.1611C-12.4071 7.95283 -10.6105 6.16582 -8.40222 6.1722C-8.26181 6.1722 -8.12459 6.17858 -7.99056 6.19453L-7.6172 6.23602C-7.6172 6.23602 -7.42893 6.25517 -7.0811 6.3158C-6.73327 6.37643 -6.22907 6.47854 -5.60681 6.6732C-4.98135 6.86786 -4.2474 7.15187 -3.44643 7.59543C-2.64546 8.03261 -1.83811 8.62935 -1.14883 9.23566C-0.804193 9.53881 -0.47551 9.84835 -0.172355 10.1451C0.118036 10.4291 0.414809 10.7227 0.724347 11.0227C1.33385 11.6194 1.97526 12.2449 2.63901 12.8959C3.30276 13.55 3.98885 14.2265 4.6877 14.9126C5.38336 15.6051 6.09179 16.3103 6.79702 17.0156C8.21068 18.4292 9.61476 19.8652 10.9135 21.2342C11.5645 21.9171 12.1868 22.5872 12.7708 23.2287C13.3547 23.8733 13.9036 24.4828 14.4142 25.0444C15.4385 26.1772 16.2937 27.1218 16.8905 27.7856C17.1841 28.1015 17.4138 28.3504 17.5734 28.5227L17.8191 28.778C19.0636 30.0736 19.0253 32.1318 17.7297 33.3796C16.4342 34.6241 14.3759 34.5858 13.1282 33.2902C13.0484 33.2072 12.9718 33.1211 12.9048 33.0317Z" fill="#70534A"/>
<path d="M15.3683 26.5059L18.017 29.6013C20.0146 31.934 20.9974 33.6668 19.5551 34.9017C18.1255 36.1239 16.581 34.9272 14.5578 32.5594C13.7887 31.6596 13.3292 31.1234 11.9092 29.4641C11.9092 29.4641 12.1485 28.5546 13.2909 27.5781C14.4812 26.5602 15.3683 26.5059 15.3683 26.5059Z" fill="#D7598B"/>
<path d="M16.4821 29.4896C16.4821 29.4896 16.5395 29.5279 16.6416 29.5981C16.6895 29.6332 16.7501 29.6779 16.8171 29.7257C16.8841 29.7768 16.9575 29.8342 17.0373 29.8949C17.366 30.1502 17.7808 30.5299 18.151 30.9479C18.5276 31.3628 18.869 31.8063 19.0988 32.1542C19.3285 32.5052 19.4626 32.7509 19.4626 32.7509L19.2041 32.9392C19.2041 32.9392 19.019 32.7381 18.7414 32.435C18.4669 32.1318 18.1031 31.7297 17.733 31.3372C17.3596 30.9447 16.9863 30.549 16.7054 30.2555C16.6289 30.1725 16.5714 30.1087 16.514 30.0417C16.4597 29.9778 16.4119 29.9204 16.3736 29.8757C16.297 29.78 16.2555 29.7257 16.2555 29.7257L16.4821 29.4896Z" fill="white"/>
</g>
<defs>
<clipPath id="clip0_3_16">
<rect width="40.8462" height="40.8462" fill="white" transform="translate(0 0.153778)"/>
</clipPath>
</defs>
</svg>
